<?xml version="1.0" encoding="utf-8"?>
<!-- Generator: Adobe Illustrator 20.1.0, SVG Export Plug-In . SVG Version: 6.00 Build 0)  -->
<svg version="1.1" id="Camada_1" xmlns="http://www.w3.org/2000/svg" xmlns:xlink="http://www.w3.org/1999/xlink" x="0px" y="0px"
	 viewBox="0 0 500 500" style="enable-background:new 0 0 500 500;" xml:space="preserve">
<style type="text/css">
	.st0{fill:#A61916;}
</style>
<path id="circulo" class="st0" d="M250,0c138.1,0,250,111.9,250,250S388.1,500,250,500S0,388.1,0,250S111.9,0,250,0z M250.6,438.7
	c104.4,0,188.1-83.7,188.1-188.1S355,62.5,250.6,62.5S62.5,146.3,62.5,250.6S146.2,438.7,250.6,438.7z"/>
<path id="play" class="st0" d="M346,238.2l-141.7-84.3c-1.7-1-3.5-1.6-5.5-1.6c-5.5,0-10.1,4.6-10.1,10.2h-0.1v175.1h0.1
	c0,5.6,4.5,10.2,10.1,10.2c2.1,0,3.8-0.7,5.7-1.7L346,261.8c3.4-2.8,5.5-7,5.5-11.8C351.5,245.3,349.4,241.1,346,238.2z"/>
<g id="pause">
	<path class="st0" d="M229.6,364.4V135.5c0-4.3-3.4-7.7-7.8-7.7h-45.6c-4.3,0-7.8,3.4-7.8,7.7v228.9c0,4.3,3.4,7.8,7.8,7.8h45.6
		C226.2,372.2,229.6,368.7,229.6,364.4z"/>
	<path class="st0" d="M323.7,127.8h-45.6c-4.3,0-7.8,3.4-7.8,7.7v228.9c0,4.3,3.4,7.8,7.8,7.8h45.6c4.3,0,7.8-3.4,7.8-7.8V135.5
		C331.5,131.3,328,127.8,323.7,127.8z"/>
</g>
<g id="next">
	<path class="st0" d="M368.2,241.2l-104.8-62.3c-1.3-0.7-2.6-1.2-4.1-1.2c-4.1,0-7.5,3.4-7.5,7.5h-0.1v129.5h0.1
		c0,4.1,3.3,7.5,7.5,7.5c1.6,0,2.8-0.5,4.2-1.3l104.6-62.3c2.5-2.1,4.1-5.2,4.1-8.7C372.2,246.5,370.7,243.4,368.2,241.2z"/>
	<path class="st0" d="M268.2,241.2l-104.8-62.3c-1.3-0.7-2.6-1.2-4.1-1.2c-4.1,0-7.5,3.4-7.5,7.5h-0.1v129.5h0.1
		c0,4.1,3.3,7.5,7.5,7.5c1.6,0,2.8-0.5,4.2-1.3l104.6-62.3c2.5-2.1,4.1-5.2,4.1-8.7C272.2,246.5,270.7,243.4,268.2,241.2z"/>
</g>
<g id="previous">
	<path class="st0" d="M133.8,250c0,3.5,1.6,6.7,4.1,8.7L242.5,321c1.4,0.7,2.7,1.3,4.2,1.3c4.1,0,7.5-3.4,7.5-7.5h0.1V185.3h-0.1
		c0-4.1-3.4-7.5-7.5-7.5c-1.5,0-2.8,0.4-4.1,1.2l-104.8,62.3C135.3,243.4,133.8,246.5,133.8,250z"/>
	<path class="st0" d="M233.8,250c0,3.5,1.6,6.7,4.1,8.7L342.5,321c1.4,0.7,2.7,1.3,4.2,1.3c4.1,0,7.5-3.4,7.5-7.5h0.1V185.3h-0.1
		c0-4.1-3.4-7.5-7.5-7.5c-1.5,0-2.8,0.4-4.1,1.2l-104.8,62.3C235.3,243.4,233.8,246.5,233.8,250z"/>
</g>
<g id="close">
	<path class="st0" d="M309.3,147.5L147.5,309.3c-3,3-3,7.9,0,10.9l32.2,32.2c3.1,3.1,7.9,3.1,10.9,0l161.8-161.8c3-3,3.1-7.9,0-11
		l-32.2-32.2C317.2,144.4,312.4,144.4,309.3,147.5z"/>
	<path class="st0" d="M179.7,147.5l-32.2,32.2c-3,3-3.1,7.9,0,10.9l161.8,161.8c3,3,7.9,3.1,11,0l32.2-32.2c3-3,3.1-7.9,0-11
		L190.7,147.5C187.6,144.5,182.8,144.5,179.7,147.5z"/>
</g>
</svg>
