<?xml version="1.0" encoding="utf-8"?>
<!-- Generator: Adobe Illustrator 20.1.0, SVG Export Plug-In . SVG Version: 6.00 Build 0)  -->
<svg version="1.1" id="Camada_1" xmlns="http://www.w3.org/2000/svg" xmlns:xlink="http://www.w3.org/1999/xlink" x="0px" y="0px"
	 viewBox="0 0 400 150.1" style="enable-background:new 0 0 400 150.1;" xml:space="preserve">
<style type="text/css">
	.st0{fill:#A61916;}
</style>
<g>
	<path d="M13.4,102.7H0L37.8-0.1L76,102.7H62.6L52.3,77H23.5L13.4,102.7z M27.7,64.2h20.6L37.8,34.3L27.7,64.2z"/>
	<path d="M84,0h12.8c28.4,0,51.4,23,51.4,51.4s-23,51.4-51.4,51.4H84V0z M97,90.2c21.5,0,38.7-17.2,38.7-38.7S118.5,12.8,97,12.8
		V90.2z"/>
	<path class="st0" d="M209.5,0c28.4,0,51.4,23,51.4,51.4s-23,51.4-51.4,51.4s-51.4-23-51.4-51.4S181.1,0,209.5,0z M209.6,90.2
		c21.5,0,38.7-17.2,38.7-38.7s-17.2-38.7-38.7-38.7S170.9,30,170.9,51.5S188.2,90.2,209.6,90.2z"/>
	<path d="M274.8,0l12.8,0.1c0.6-0.1,1.3-0.1,2.1-0.1c21.3,0,38.5,17.2,38.5,38.5c0,13.9-7.3,25.9-18.2,32.8l18.1,31.5h-14.9
		l-15.3-26.6c-2.7,0.6-5.4,0.9-8.2,0.9h-2.1v25.6h-12.8V0z M287.6,13.2v51.1h2.1c14.1,0,25.7-11.4,25.7-25.6
		c0-14.1-11.6-25.7-25.7-25.7C288.9,13.1,288.2,13.1,287.6,13.2z"/>
	<path d="M342.1,0h57.8v12.8h-45v51.4H387V77h-32.1v12.8H400v12.9h-57.9V0z"/>
</g>
<g>
	<path d="M295.1,104.7c0.7,0,1.3,1,2,3.1c0.7,2,1,4.2,1,6.4c0,4.9-1.1,10.3-3.2,16.2c-2.2,5.9-4.9,10.7-8.3,14.3
		c-3.4,3.6-6.9,5.4-10.5,5.4c-2.9,0-5.3-1-7.2-3.1c-1.9-2.1-2.8-4.8-2.8-8.2c0-3.2,1.1-7.8,3.4-13.8c2.1-5.8,3.1-9.9,3.1-12.3
		c0-1.6-0.3-2.9-0.9-3.8s-1.5-1.3-2.6-1.3c-1.7,0-3.3,1-4.8,2.9s-2.3,4-2.3,6.2c0,1.8,0.5,3.1,1.4,4s1.4,1.5,1.4,2
		c0,0.8-0.5,1.6-1.4,2.6s-1.7,1.5-2.4,1.5c-0.9,0-1.7-0.6-2.4-1.8c-0.8-1.2-1.1-2.5-1.1-4c0-3.8,1.4-7.4,4.1-10.9s5.9-5.2,9.6-5.2
		c2.8,0,5,1,6.7,3.2c1.7,2.1,2.5,4.9,2.5,8.4c0,1.6-0.2,3.5-0.6,5.5s-1.4,5.3-3.1,9.6c-1.6,4.4-2.4,7.7-2.4,10
		c0,1.5,0.4,2.7,1.3,3.7s2,1.5,3.3,1.5c2,0,4.1-1.2,6.3-3.6c2.2-2.4,4-5.5,5.5-9.3c1.4-3.8,2.2-7.5,2.2-11.1c0-3.4-1-7-3.1-10.9
		c-0.6-1.2-1-2-1-2.4c0-0.8,0.9-1.7,2.7-2.8C293.2,105.2,294.4,104.7,295.1,104.7z"/>
	<path d="M314.9,142.4c-4.9,5.1-8.6,7.7-11,7.7c-1.3,0-2.5-0.7-3.4-2.1s-1.4-3.1-1.4-5.2c0-4.5,1.5-10.6,4.5-18.5l8-1.7h0.4
		l-3.1,9.8c-1.3,4.1-1.9,7-1.9,8.7c0,0.7,0.2,1.2,0.5,1.7c0.3,0.4,0.7,0.6,1.1,0.6c0.8,0,1.6-0.3,2.5-0.9c0.8-0.6,2.1-1.9,3.9-3.9
		v3.8H314.9z M314.3,110.5c0,5-1.9,7.5-5.6,7.5c-1.8,0-3.3-0.5-4.6-1.6c1.2-1.8,2.2-3.9,2.8-6.2c1.7,1,3,1.5,4,1.5
		C312,111.7,313.2,111.3,314.3,110.5z"/>
	<path d="M348.4,142.4c-3,3-5.3,5-6.9,6.1s-3,1.6-4.2,1.6c-1.5,0-2.7-0.7-3.5-2.2c-0.9-1.4-1.3-3.6-1.3-6.3
		c-1.7,2.8-3.6,4.9-5.6,6.3s-3.8,2.2-5.5,2.2c-1.8,0-3.3-0.8-4.7-2.5c-1.4-1.7-2-3.7-2-5.9c0-4.7,1.7-9,5.1-13s7.1-6,11-6
		c1.1,0,1.9,0.2,2.6,0.5c0.6,0.3,1.3,0.8,2,1.6l4.5-18.8c3.7-0.9,6.1-1.3,7.4-1.3c0.4,0,0.6,0.2,0.6,0.5c0,0.2-0.5,2.4-1.6,6.5
		c-4.2,16.4-6.3,26.3-6.3,29.7c0,0.8,0.2,1.4,0.5,1.9s0.8,0.7,1.3,0.7c1.3,0,3.5-1.7,6.6-5.2V142.4z M325.7,144.1c2,0,4-1.7,5.7-5.2
		c1.8-3.5,2.7-6.7,2.7-9.8c0-1.2-0.3-2.2-0.8-2.9c-0.6-0.7-1.3-1.1-2.2-1.1c-1.9,0-3.8,1.8-5.6,5.4c-1.8,3.6-2.7,6.9-2.7,9.8
		c0,1.2,0.3,2.1,0.8,2.7C324.1,143.7,324.8,144.1,325.7,144.1z"/>
	<path d="M371.8,142.4c-2.7,2.6-5,4.5-7.2,5.8c-2.1,1.2-4.4,1.9-7,1.9c-2.8,0-5.1-0.9-6.9-2.7c-1.7-1.8-2.6-4.2-2.6-7.2
		c0-4.4,1.5-8.4,4.6-12s6.5-5.4,10.2-5.4c1.9,0,3.5,0.5,4.7,1.5s1.8,2.3,1.8,4c0,4.3-4.6,7.8-13.8,10.5c0.8,4.1,3,6.1,6.6,6.1
		c1.4,0,2.7-0.4,4-1.1s3.1-2.4,5.7-4.9v3.5H371.8z M355.4,136.6c5.4-1.5,8-4.3,8-8.3c0-2-0.7-3-2.2-3c-1.4,0-2.7,1.1-4,3.2
		C356,130.5,355.4,133.2,355.4,136.6z"/>
	<path d="M400,142.4c-1.1,0.9-2.1,1.6-3.1,2s-1.8,0.6-2.4,0.6c-1.5,0-3-0.6-4.5-1.8c-3,4.6-6.5,6.8-10.3,6.8c-2.4,0-4.4-0.9-5.9-2.7
		s-2.3-4.2-2.3-7.2c0-4.8,1.7-8.9,5.1-12.3s7.4-5.1,12.1-5.1c1.8,0,3.1,0.2,3.9,0.6s1.3,0.8,1.5,1.4c0.2,0.5,0.3,1.2,0.3,2
		c0,3.9-1.1,8.7-3.2,14.4c1.1,1,2.2,1.5,3.4,1.5c1.4,0,3.2-1.2,5.4-3.7V142.4z M389.6,124.9c-0.3-0.1-0.8-0.2-1.3-0.2
		c-2.7,0-4.8,1.4-6.4,4.3c-1.5,2.8-2.3,6.2-2.3,10c0,2.1,0.3,3.8,1,4.9c0.7,1.2,1.6,1.8,2.8,1.8c1.5,0,3.1-1.4,4.8-4.1
		c-2-2.5-2.9-5.1-2.9-8C385.3,130.2,386.7,127.3,389.6,124.9z"/>
</g>
<path class="st0" d="M230.6,48.9l-29.1-17.3c-0.4-0.2-0.7-0.3-1.1-0.3c-1.1,0-2.1,0.9-2.1,2.1l0,0v36l0,0c0,1.2,0.9,2.1,2.1,2.1
	c0.4,0,0.8-0.1,1.2-0.4l29.1-17.3c0.7-0.6,1.1-1.4,1.1-2.4S231.3,49.5,230.6,48.9z"/>
</svg>
